<svg xmlns="http://www.w3.org/2000/svg" viewBox="0 0 32 32">
  <rect width="32" height="32" fill="#0a0a0f" rx="6"/>
  <!-- Lips shape -->
  <g transform="translate(16, 16) scale(0.85)" fill="#c4a77d" stroke="#c4a77d" stroke-width="0.3">
    <!-- Upper lip left -->
    <path d="M-10,1 Q-10,-6 -3,-7 Q0,-4 0,0 Z" opacity="0.95"/>
    <!-- Upper lip right -->
    <path d="M10,1 Q10,-6 3,-7 Q0,-4 0,0 Z" opacity="0.95"/>
    <!-- Lower lip -->
    <path d="M-10,1 Q-10,8 0,9 Q10,8 10,1 Q5,3 0,2 Q-5,3 -10,1 Z" opacity="0.90"/>
  </g>
  <!-- Geometric line work -->
  <g transform="translate(16, 16) scale(0.85)" fill="none" stroke="#0a0a0f" stroke-width="0.6" opacity="0.4">
    <path d="M-7,-3 Q0,4 7,-3"/>
    <path d="M-5,-5 Q0,2 5,-5"/>
    <path d="M0,-7 Q-3,0 0,6 Q3,0 0,-7"/>
  </g>
</svg>
