<?xml version="1.0" encoding="UTF-8"?>
<svg xmlns="http://www.w3.org/2000/svg" viewBox="0 0 400 460" role="img" aria-label="Orion, after Bayer's Uranometria, Augsburg, 1603">
  <title>Orion - after Bayer - Uranometria - Augsburg - 1603</title>
  <desc>Star-position plate in the Bayer tradition. Greek-letter designations per stellae magnitudinem. Hunter as faint ghost outline. Brass-line, Evoked brand palette.</desc>
  <defs>
    <style>
      .frame { stroke: #A88838; stroke-width: 0.3; stroke-dasharray: 1 2; opacity: 0.32; fill: none; }
      .crosshair { stroke: #A88838; stroke-width: 0.15; opacity: 0.18; }
      .grid { stroke: #A88838; stroke-width: 0.2; opacity: 0.22; }
      .ghost { stroke: #7E6622; stroke-width: 0.5; fill: none; opacity: 0.32; stroke-linecap: round; stroke-linejoin: round; }
      .star { fill: #A88838; }
      .greek { font-family: 'EB Garamond', Georgia, serif; font-size: 12px; fill: #7E6622; font-style: italic; }
      .caption-main { font-family: 'Space Grotesk', system-ui, sans-serif; font-size: 9px; fill: #A88838; letter-spacing: 0.28em; text-transform: uppercase; font-weight: 500; }
      .caption-cite { font-family: 'Space Grotesk', system-ui, sans-serif; font-size: 9px; fill: #7E6622; letter-spacing: 0.22em; text-transform: uppercase; font-weight: 500; }
      .latin { font-family: 'EB Garamond', Georgia, serif; font-size: 10px; fill: #7E6622; font-style: italic; opacity: 0.85; }
    </style>
    <radialGradient id="sketch-fade" cx="50%" cy="50%" r="52%">
      <stop offset="0%" stop-color="#fff" stop-opacity="1"/>
      <stop offset="48%" stop-color="#fff" stop-opacity="1"/>
      <stop offset="80%" stop-color="#fff" stop-opacity="0.55"/>
      <stop offset="100%" stop-color="#fff" stop-opacity="0"/>
    </radialGradient>
    <mask id="sketch-fade-mask">
      <rect width="400" height="400" fill="url(#sketch-fade)"/>
    </mask>
  </defs>

  <rect class="frame" x="20" y="20" width="360" height="360"/>
  <line class="crosshair" x1="200" y1="20" x2="200" y2="380"/>
  <line class="crosshair" x1="20" y1="200" x2="380" y2="200"/>
  <g>
    <line class="grid" x1="125" y1="40" x2="125" y2="360" stroke-dasharray="2 3"/>
    <line class="grid" x1="275" y1="40" x2="275" y2="360" stroke-dasharray="2 3"/>
    <line class="grid" x1="40" y1="125" x2="360" y2="125" stroke-dasharray="2 3"/>
    <line class="grid" x1="40" y1="275" x2="360" y2="275" stroke-dasharray="2 3"/>
  </g>

  <g class="ghost" mask="url(#sketch-fade-mask)">
    <ellipse cx="200" cy="95" rx="11" ry="12"/>
    <path d="M 185 110 Q 175 140 175 175 Q 178 205 188 235"/>
    <path d="M 215 110 Q 225 140 225 175 Q 222 205 212 235"/>
    <path d="M 175 198 Q 200 203 225 198" opacity="0.5"/>
    <path d="M 190 240 Q 180 290 170 340"/>
    <path d="M 210 240 Q 220 290 230 340"/>
    <path d="M 218 118 Q 250 100 278 80 Q 292 70 300 60"/>
    <path d="M 300 60 Q 308 50 314 42" stroke-width="0.7"/>
    <ellipse cx="312" cy="46" rx="7" ry="3.5" transform="rotate(-32 312 46)" stroke-width="0.5"/>
    <path d="M 182 118 Q 145 130 122 155 Q 105 180 100 205"/>
    <path d="M 88 165 Q 70 195 75 235 Q 85 260 110 260 Q 115 245 108 220 Q 98 190 100 165 Z" stroke-width="0.35"/>
    <path d="M 200 203 L 200 245" stroke-width="0.35" opacity="0.5"/>
  </g>

  <circle class="star" cx="170" cy="200" r="3.5"/>
  <circle class="star" cx="200" cy="202" r="4"/>
  <circle class="star" cx="230" cy="200" r="3.5"/>
  <text class="greek" x="170" y="187" text-anchor="middle">δ</text>
  <text class="greek" x="200" y="187" text-anchor="middle">ε</text>
  <text class="greek" x="230" y="187" text-anchor="middle">ζ</text>

  <circle class="star" cx="148" cy="115" r="4.2"/>
  <text class="greek" x="148" y="103" text-anchor="middle">α</text>
  <circle class="star" cx="252" cy="115" r="3"/>
  <text class="greek" x="252" y="103" text-anchor="middle">γ</text>
  <circle class="star" cx="148" cy="300" r="3"/>
  <text class="greek" x="148" y="318" text-anchor="middle">κ</text>
  <circle class="star" cx="252" cy="305" r="4.5"/>
  <text class="greek" x="252" y="323" text-anchor="middle">β</text>

  <circle class="star" cx="200" cy="228" r="2" opacity="0.85"/>
  <circle class="star" cx="200" cy="240" r="2.4" opacity="0.85"/>
  <circle class="star" cx="200" cy="252" r="2" opacity="0.85"/>
  <circle class="star" cx="200" cy="240" r="6" opacity="0.08"/>

  <circle class="star" cx="115" cy="155" r="1.5" opacity="0.65"/>
  <circle class="star" cx="285" cy="155" r="1.5" opacity="0.65"/>
  <circle class="star" cx="105" cy="125" r="1.5" opacity="0.6"/>
  <circle class="star" cx="295" cy="125" r="1.4" opacity="0.6"/>
  <circle class="star" cx="135" cy="175" r="1.2" opacity="0.55"/>
  <circle class="star" cx="265" cy="175" r="1.2" opacity="0.55"/>
  <circle class="star" cx="155" cy="160" r="1.3" opacity="0.65"/>
  <circle class="star" cx="245" cy="160" r="1.3" opacity="0.65"/>
  <circle class="star" cx="180" cy="170" r="1.1" opacity="0.55"/>
  <circle class="star" cx="220" cy="170" r="1.1" opacity="0.55"/>
  <circle class="star" cx="125" cy="265" r="1.4" opacity="0.6"/>
  <circle class="star" cx="275" cy="265" r="1.4" opacity="0.6"/>
  <circle class="star" cx="165" cy="270" r="1.2" opacity="0.55"/>
  <circle class="star" cx="235" cy="270" r="1.2" opacity="0.55"/>

  <text class="latin" x="200" y="378" text-anchor="middle" letter-spacing="0.06em">per stellae magnitudinem</text>

  <text class="caption-main" x="200" y="420" text-anchor="middle">FIG · ORION</text>
  <text class="caption-cite" x="200" y="438" text-anchor="middle">After Bayer · Uranometria</text>
  <text class="caption-cite" x="200" y="452" text-anchor="middle">Augsburg · 1603</text>
</svg>
