<?xml version="1.0" encoding="UTF-8"?>
<svg xmlns="http://www.w3.org/2000/svg" viewBox="0 0 400 460" role="img" aria-label="Orion, after Hevelius, Firmamentum Sobiescianum, Gdansk, 1690">
  <title>Orion - after Hevelius - Firmamentum Sobiescianum - Gdansk - 1690</title>
  <desc>Polish baroque hunter figure with raised club and pelt-shield, in the Hevelius tradition. Brass-line, Evoked brand palette.</desc>
  <defs>
    <style>
      .frame { stroke: #A88838; stroke-width: 0.3; stroke-dasharray: 1 2; opacity: 0.35; fill: none; }
      .crosshair { stroke: #A88838; stroke-width: 0.2; opacity: 0.2; }
      .figure { stroke: #A88838; stroke-width: 0.7; fill: none; opacity: 0.85; }
      .star-prim { fill: #A88838; }
      .star-ring { stroke: #A88838; stroke-width: 0.6; fill: none; }
      .name { font-family: 'EB Garamond', Georgia, serif; font-size: 9px; fill: #7E6622; font-style: italic; opacity: 0.7; }
      .caption-main { font-family: 'Space Grotesk', system-ui, sans-serif; font-size: 9px; fill: #A88838; letter-spacing: 0.28em; text-transform: uppercase; font-weight: 500; }
      .caption-cite { font-family: 'Space Grotesk', system-ui, sans-serif; font-size: 9px; fill: #7E6622; letter-spacing: 0.22em; text-transform: uppercase; font-weight: 500; }
    </style>
  </defs>

  <rect class="frame" x="20" y="20" width="360" height="360"/>
  <line class="crosshair" x1="200" y1="20" x2="200" y2="380"/>
  <line class="crosshair" x1="20" y1="200" x2="380" y2="200"/>

  <g class="figure">
    <ellipse cx="200" cy="80" rx="14" ry="16"/>
    <path d="M 188 68 Q 180 50 175 38 Q 178 45 185 60"/>
    <path d="M 212 68 Q 220 50 225 38 Q 222 45 215 60"/>
    <path d="M 200 65 Q 200 45 198 35"/>
    <path d="M 175 100 Q 165 130 165 170 Q 170 200 180 230 L 195 245"/>
    <path d="M 225 100 Q 235 130 235 170 Q 230 200 220 230 L 205 245"/>
    <path d="M 165 195 Q 200 200 235 195" stroke-width="0.9" opacity="0.95"/>
    <path d="M 235 110 Q 270 90 295 60 Q 305 50 312 40"/>
    <path d="M 295 55 Q 310 45 320 32"/>
    <path d="M 312 40 Q 318 32 322 25" stroke-width="1.3"/>
    <ellipse cx="320" cy="28" rx="9" ry="5" transform="rotate(-30 320 28)" stroke-width="0.8"/>
    <path d="M 165 110 Q 130 130 110 160 Q 100 180 105 195"/>
    <path d="M 90 145 Q 70 170 75 215 Q 85 245 110 250 Q 115 240 110 220 Q 100 185 100 160 Z" stroke-width="0.6"/>
    <path d="M 185 240 Q 175 280 165 320 Q 158 340 155 360"/>
    <path d="M 215 240 Q 225 280 240 320 Q 248 340 252 360"/>
    <path d="M 200 200 Q 200 230 198 250" stroke-width="0.5" opacity="0.6"/>
    <path d="M 50 200 Q 35 180 40 150 Q 50 165 55 185" stroke-width="0.4" opacity="0.45"/>
    <path d="M 350 200 Q 365 220 360 250 Q 350 235 345 215" stroke-width="0.4" opacity="0.45"/>
  </g>

  <circle class="star-prim" cx="172" cy="197" r="3.5"/>
  <circle class="star-prim" cx="200" cy="199" r="4"/>
  <circle class="star-prim" cx="228" cy="197" r="3.5"/>
  <circle class="star-ring" cx="148" cy="100" r="2.5"/>
  <circle class="star-ring" cx="252" cy="100" r="2.5"/>
  <circle class="star-ring" cx="138" cy="295" r="3"/>
  <circle class="star-ring" cx="262" cy="295" r="3"/>
  <text class="name" x="148" y="92" text-anchor="middle">Betelgeuse</text>
  <text class="name" x="252" y="92" text-anchor="middle">Bellatrix</text>
  <text class="name" x="138" y="310" text-anchor="middle">Saiph</text>
  <text class="name" x="262" y="310" text-anchor="middle">Rigel</text>

  <text class="caption-main" x="200" y="420" text-anchor="middle">FIG · ORION</text>
  <text class="caption-cite" x="200" y="438" text-anchor="middle">After Hevelius · Firmamentum Sobiescianum</text>
  <text class="caption-cite" x="200" y="452" text-anchor="middle">Gdansk · 1690</text>
</svg>
